<?xml version="1.0" encoding="UTF-8" standalone="no"?><!DOCTYPE svg PUBLIC "-//W3C//DTD SVG 1.1//EN" "http://www.w3.org/Graphics/SVG/1.1/DTD/svg11.dtd"><svg width="100%" height="100%" viewBox="0 0 417 313" version="1.1" xmlns="http://www.w3.org/2000/svg" xmlns:xlink="http://www.w3.org/1999/xlink" xml:space="preserve" xmlns:serif="http://www.serif.com/" style="fill-rule:evenodd;clip-rule:evenodd;stroke-linejoin:round;stroke-miterlimit:2;"><rect id="Artboard1" x="0" y="0" width="416.667" height="312.5" style="fill:none;"/><g id="Artboard11" serif:id="Artboard1"><path d="M97.589,189.933c-0.833,2.388 -2.28,4.257 -4.34,5.608c-0.255,0.151 -2.077,1.03 -5.465,2.638c-2.026,0.937 -3.352,2.091 -3.978,3.462c-0.16,0.35 -0.319,0.701 -0.478,1.052c-0.164,0.257 -0.477,0.388 -0.941,0.393c-0.535,-0.002 -0.934,-0.049 -1.198,-0.141c-0.84,-0.293 -1.325,-0.49 -1.456,-0.592c-0.344,-0.286 -0.403,-0.75 -0.179,-1.392c0.689,-1.977 1.576,-3.432 2.659,-4.365c1.581,-1.038 3.157,-2.086 4.727,-3.145c1.882,-1.265 3.096,-2.68 3.642,-4.244c0.534,-1.532 0.525,-2.921 -0.029,-4.167c-0.554,-1.246 -1.588,-2.134 -3.103,-2.662c-1.219,-0.425 -2.723,-0.47 -4.512,-0.133c-1.79,0.336 -2.651,0.516 -2.585,0.539c-0.511,-0.178 -0.215,-1.848 0.889,-5.011c0.08,-0.23 0.428,-0.432 1.042,-0.606c3.212,-0.893 6.243,-0.843 9.092,0.151c2.784,0.971 4.758,2.621 5.922,4.948c1.165,2.328 1.262,4.884 0.291,7.667Zm-14.858,19.951c-0.321,0.922 -0.908,1.623 -1.758,2.102c-0.851,0.479 -1.729,0.561 -2.635,0.245c-0.89,-0.31 -1.514,-0.916 -1.874,-1.818c-0.36,-0.901 -0.379,-1.813 -0.057,-2.735c0.322,-0.923 0.895,-1.614 1.721,-2.074c0.826,-0.46 1.691,-0.532 2.597,-0.216c0.922,0.321 1.568,0.921 1.936,1.797c0.369,0.877 0.392,1.777 0.07,2.699Z" style="fill:#e5f20d;fill-rule:nonzero;"/><path d="M349.684,255.455c-1.806,1.269 -3.782,1.857 -5.928,1.766c-0.258,-0.023 -1.997,-0.327 -5.215,-0.911c-1.913,-0.367 -3.44,-0.224 -4.58,0.428c-0.292,0.168 -0.583,0.335 -0.875,0.503c-0.246,0.099 -0.535,0.032 -0.866,-0.201c-0.378,-0.273 -0.637,-0.51 -0.777,-0.709c-0.446,-0.635 -0.69,-1.022 -0.731,-1.16c-0.098,-0.378 0.096,-0.737 0.581,-1.078c1.495,-1.05 2.863,-1.63 4.106,-1.74c1.648,0.069 3.298,0.128 4.949,0.177c1.978,0.061 3.558,-0.323 4.74,-1.154c1.158,-0.814 1.858,-1.803 2.1,-2.968c0.242,-1.164 -0.04,-2.319 -0.844,-3.465c-0.648,-0.921 -1.691,-1.718 -3.13,-2.39c-1.439,-0.672 -2.141,-0.983 -2.106,-0.933c-0.271,-0.386 0.789,-1.419 3.179,-3.098c0.175,-0.123 0.524,-0.089 1.048,0.101c2.73,1.001 4.852,2.579 6.365,4.733c1.478,2.104 2.038,4.277 1.679,6.519c-0.359,2.242 -1.591,4.102 -3.695,5.58Zm-20.679,6.577c-0.697,0.49 -1.469,0.688 -2.316,0.595c-0.847,-0.093 -1.51,-0.482 -1.991,-1.167c-0.473,-0.672 -0.607,-1.42 -0.403,-2.241c0.203,-0.822 0.654,-1.478 1.351,-1.968c0.697,-0.49 1.456,-0.688 2.275,-0.594c0.819,0.094 1.469,0.484 1.95,1.169c0.49,0.697 0.642,1.45 0.457,2.259c-0.185,0.808 -0.626,1.458 -1.323,1.947Z" style="fill:#94f20d;fill-rule:nonzero;"/><path d="M87.632,52.8c0.486,1.628 0.433,3.214 -0.157,4.759c-0.08,0.183 -0.726,1.378 -1.937,3.586c-0.735,1.307 -1.003,2.456 -0.805,3.448c0.051,0.254 0.102,0.508 0.154,0.761c0.012,0.205 -0.108,0.399 -0.358,0.584c-0.292,0.209 -0.528,0.341 -0.708,0.394c-0.572,0.171 -0.914,0.255 -1.025,0.251c-0.299,-0.02 -0.514,-0.25 -0.645,-0.687c-0.402,-1.347 -0.492,-2.488 -0.269,-3.422c0.453,-1.187 0.898,-2.377 1.336,-3.571c0.528,-1.429 0.632,-2.676 0.314,-3.743c-0.311,-1.044 -0.863,-1.796 -1.654,-2.257c-0.792,-0.46 -1.704,-0.536 -2.737,-0.228c-0.83,0.247 -1.666,0.815 -2.508,1.702c-0.842,0.886 -1.24,1.323 -1.195,1.31c-0.348,0.103 -0.844,-0.922 -1.487,-3.077c-0.047,-0.158 0.063,-0.404 0.33,-0.74c1.397,-1.75 3.066,-2.914 5.008,-3.493c1.897,-0.566 3.621,-0.445 5.17,0.364c1.549,0.809 2.607,2.162 3.173,4.059Zm-0.242,16.703c0.187,0.629 0.144,1.241 -0.131,1.836c-0.275,0.596 -0.721,0.985 -1.338,1.17c-0.606,0.18 -1.184,0.096 -1.735,-0.253c-0.55,-0.349 -0.919,-0.838 -1.107,-1.467c-0.187,-0.628 -0.147,-1.23 0.122,-1.805c0.268,-0.575 0.711,-0.955 1.328,-1.139c0.629,-0.188 1.216,-0.115 1.761,0.217c0.546,0.332 0.912,0.813 1.1,1.441Z" style="fill:#0df2c9;fill-rule:nonzero;"/><path d="M353.739,89.485c-0.52,-2.481 -0.245,-4.834 0.826,-7.058c0.141,-0.262 1.251,-1.959 3.327,-5.092c1.256,-1.852 1.798,-3.529 1.626,-5.029c-0.044,-0.384 -0.089,-0.767 -0.134,-1.151c0.008,-0.305 0.21,-0.579 0.605,-0.823c0.46,-0.275 0.828,-0.441 1.101,-0.499c0.873,-0.182 1.392,-0.264 1.557,-0.245c0.442,0.068 0.734,0.435 0.874,1.103c0.43,2.053 0.421,3.761 -0.026,5.123c-0.821,1.708 -1.632,3.423 -2.432,5.144c-0.962,2.06 -1.273,3.902 -0.933,5.528c0.334,1.591 1.06,2.778 2.18,3.562c1.12,0.784 2.467,1.011 4.041,0.681c1.266,-0.265 2.581,-1.005 3.943,-2.219c1.362,-1.214 2.009,-1.814 1.94,-1.8c0.531,-0.111 1.14,1.476 1.828,4.762c0.05,0.239 -0.143,0.592 -0.582,1.059c-2.295,2.428 -4.924,3.952 -7.884,4.572c-2.892,0.606 -5.439,0.211 -7.643,-1.186c-2.204,-1.396 -3.608,-3.54 -4.214,-6.432Zm2.439,-24.812c-0.201,-0.958 -0.06,-1.863 0.423,-2.714c0.482,-0.852 1.194,-1.376 2.136,-1.573c0.924,-0.194 1.773,0.004 2.548,0.592c0.775,0.587 1.263,1.36 1.464,2.319c0.201,0.958 0.066,1.848 -0.405,2.67c-0.471,0.822 -1.177,1.332 -2.118,1.529c-0.959,0.201 -1.823,0.02 -2.592,-0.542c-0.77,-0.563 -1.255,-1.323 -1.456,-2.281Z" style="fill:#f20d0d;fill-rule:nonzero;"/><path d="M222.047,133.65c-0,3.568 -1.058,6.731 -3.175,9.487c-0.271,0.32 -2.288,2.338 -6.054,6.054c-2.264,2.19 -3.494,4.343 -3.691,6.46c-0.049,0.541 -0.098,1.082 -0.148,1.624c-0.098,0.418 -0.455,0.738 -1.07,0.96c-0.714,0.246 -1.268,0.369 -1.661,0.369c-1.255,-0 -1.994,-0.037 -2.215,-0.111c-0.591,-0.222 -0.886,-0.812 -0.886,-1.772c-0,-2.953 0.504,-5.303 1.513,-7.05c1.625,-2.117 3.237,-4.246 4.836,-6.387c1.92,-2.559 2.879,-5.007 2.879,-7.345c0,-2.289 -0.658,-4.135 -1.974,-5.537c-1.317,-1.403 -3.107,-2.104 -5.371,-2.104c-1.822,-0 -3.846,0.639 -6.073,1.919c-2.227,1.28 -3.291,1.92 -3.193,1.92c-0.763,-0 -1.144,-2.363 -1.144,-7.088c-0,-0.344 0.369,-0.775 1.107,-1.292c3.864,-2.682 7.924,-4.023 12.182,-4.023c4.159,-0 7.555,1.279 10.188,3.839c2.633,2.559 3.95,5.918 3.95,10.077Zm-10.521,33.481c0,1.378 -0.455,2.584 -1.365,3.617c-0.911,1.034 -2.043,1.551 -3.396,1.551c-1.329,-0 -2.443,-0.517 -3.341,-1.551c-0.898,-1.033 -1.348,-2.239 -1.348,-3.617c0,-1.378 0.443,-2.566 1.329,-3.562c0.886,-0.997 2.006,-1.495 3.36,-1.495c1.378,-0 2.516,0.498 3.414,1.495c0.898,0.996 1.347,2.184 1.347,3.562Z" style="fill:#fff;fill-rule:nonzero;"/><path d="M183.761,293.248c-1.879,-0.709 -3.335,-1.895 -4.366,-3.557c-0.115,-0.206 -0.777,-1.67 -1.986,-4.391c-0.704,-1.628 -1.594,-2.704 -2.67,-3.228c-0.275,-0.134 -0.55,-0.267 -0.826,-0.4c-0.201,-0.135 -0.298,-0.387 -0.293,-0.755c0.013,-0.425 0.058,-0.741 0.136,-0.948c0.249,-0.661 0.415,-1.043 0.498,-1.145c0.234,-0.267 0.604,-0.305 1.11,-0.115c1.555,0.587 2.693,1.32 3.413,2.198c0.792,1.276 1.593,2.548 2.403,3.816c0.967,1.52 2.066,2.512 3.297,2.976c1.206,0.455 2.309,0.475 3.309,0.06c1,-0.415 1.726,-1.219 2.175,-2.411c0.362,-0.96 0.427,-2.153 0.196,-3.58c-0.232,-1.427 -0.358,-2.115 -0.377,-2.063c0.151,-0.402 1.472,-0.134 3.96,0.805c0.182,0.068 0.335,0.348 0.461,0.84c0.645,2.568 0.545,4.973 -0.301,7.216c-0.826,2.19 -2.175,3.725 -4.046,4.603c-1.871,0.879 -3.902,0.905 -6.093,0.079Zm-15.545,-12.193c-0.726,-0.274 -1.271,-0.753 -1.634,-1.438c-0.364,-0.685 -0.411,-1.384 -0.142,-2.097c0.264,-0.7 0.757,-1.184 1.48,-1.451c0.723,-0.268 1.447,-0.265 2.173,0.009c0.726,0.273 1.263,0.742 1.612,1.407c0.349,0.665 0.389,1.354 0.121,2.067c-0.274,0.725 -0.763,1.226 -1.466,1.501c-0.704,0.275 -1.418,0.276 -2.144,0.002Z" style="fill:#e40df2;fill-rule:nonzero;"/></g></svg>