<svg xmlns="http://www.w3.org/2000/svg">
  <style id="style">
    :root {
      color: #4f46e5;
    }
    @media (prefers-color-scheme:dark) {
      :root {
        color: #818cf8;
      }
    }
  </style>
  <symbol viewBox="0 0 2853 601" id="logotype">
    <path
      d="M241.845,425.476l116.956,-0m-58.465,-350.392l-0,25.028m159.278,40.946l-17.695,17.694m83.669,141.584l-25.028,-0m-400.448,-0l-25.028,-0m83.668,-141.584l-17.694,-17.694m70.779,247.777c-23.452,-23.459 -36.641,-55.305 -36.641,-88.476c-0,-68.65 56.49,-125.14 125.14,-125.14c68.65,0 125.14,56.49 125.14,125.14c-0,33.171 -13.189,65.017 -36.641,88.476l-13.716,13.69c-15.829,15.833 -24.73,37.328 -24.727,59.717l-0,13.29c-0,27.46 -22.596,50.056 -50.056,50.056c-27.46,-0 -50.056,-22.596 -50.056,-50.056l-0,-13.29c-0,-22.4 -8.91,-43.899 -24.728,-59.717l-13.715,-13.69Z"
      fill="none"
      stroke="currentColor"
      stroke-width="50.06px"
      stroke-linecap="round"
    />
    <g>
      <path
        d="M869.107,485.128c-30.079,-0 -52.878,-6.64 -68.397,-19.919c-15.52,-13.28 -23.279,-32.719 -23.279,-58.318l-0,-123.834l-76.797,-0l-0,-43.199l76.797,0l-0,-66.237l54.237,-11.519l0,77.756l101.756,0l-0,43.199l-101.756,-0l0,113.755c0,15.039 3.6,25.758 10.8,32.158c7.199,6.4 18.479,9.6 33.838,9.6c8.32,-0 17.04,-0.72 26.159,-2.16c9.12,-1.44 19.599,-4.24 31.439,-8.4l-0,46.078c-10.24,3.2 -20.959,5.84 -32.159,7.92c-11.199,2.08 -22.079,3.12 -32.638,3.12Z"
        fill="currentColor"
        fill-rule="nonzero"
      />
      <path
        d="M985.742,480.328l-0,-344.145l54.237,-9.6l0,149.274c18.559,-26.559 43.198,-39.838 73.917,-39.838c16.639,-0 31.199,3.599 43.678,10.799c12.479,7.2 22.319,17.279 29.519,30.239c7.199,12.959 10.799,27.919 10.799,44.878l0,158.393l-54.717,-0l-0,-143.034c-0,-17.599 -4.8,-31.598 -14.4,-41.998c-9.599,-10.4 -22.399,-15.599 -38.398,-15.599c-10.24,-0 -19.679,2.24 -28.319,6.719c-8.639,4.48 -15.999,11.04 -22.079,19.68l0,174.232l-54.237,-0Z"
        fill="currentColor"
        fill-rule="nonzero"
      />
      <path
        d="M1353.4,192.82c-10.879,0 -20.079,-3.839 -27.598,-11.519c-7.52,-7.68 -11.28,-16.799 -11.28,-27.359c0,-10.559 3.76,-19.599 11.28,-27.119c7.519,-7.519 16.719,-11.279 27.598,-11.279c10.56,-0 19.6,3.76 27.119,11.279c7.52,7.52 11.28,16.56 11.28,27.119c-0,10.56 -3.76,19.679 -11.28,27.359c-7.519,7.68 -16.559,11.519 -27.119,11.519Zm61.438,292.308c-29.119,-0 -51.198,-6.88 -66.237,-20.639c-15.04,-13.76 -22.559,-34.079 -22.559,-60.958l-0,-120.474l-86.397,-0l0,-43.199l140.634,0l0,157.914c0,14.399 3.44,24.798 10.32,31.198c6.88,6.4 17.359,9.6 31.438,9.6c8,-0 15.84,-0.8 23.519,-2.4c7.68,-1.6 16.16,-4.16 25.439,-7.68l0,45.598c-7.359,2.88 -16.159,5.44 -26.399,7.68c-10.239,2.24 -20.159,3.36 -29.758,3.36Z"
        fill="currentColor"
        fill-rule="nonzero"
      />
      <path
        d="M1513.72,480.328l0,-240.47l54.238,0l0,35.999c18.559,-26.559 43.198,-39.838 73.917,-39.838c16.639,-0 31.199,3.599 43.678,10.799c12.479,7.2 22.319,17.279 29.519,30.239c7.199,12.959 10.799,27.919 10.799,44.878l0,158.393l-54.717,-0l-0,-143.034c-0,-17.599 -4.8,-31.598 -14.4,-41.998c-9.599,-10.4 -22.399,-15.599 -38.398,-15.599c-10.24,-0 -19.679,2.24 -28.319,6.719c-8.639,4.48 -15.999,11.04 -22.079,19.68l0,174.232l-54.238,-0Z"
        fill="currentColor"
        fill-rule="nonzero"
      />
      <path
        d="M1781.55,480.328l-0,-344.625l54.237,-9.12l0,216.951l107.036,-103.676l62.877,0l-116.635,111.836l122.875,128.634l-69.597,-0l-106.556,-111.835l0,111.835l-54.237,-0Z"
        fill="currentColor"
        fill-rule="nonzero"
      />
      <path
        d="M2132.89,483.688c-20.159,-0 -38.478,-5.44 -54.957,-16.32c-16.479,-10.879 -29.599,-25.678 -39.358,-44.398c-9.76,-18.719 -14.64,-39.598 -14.64,-62.637c0,-23.359 4.96,-44.318 14.88,-62.877c9.919,-18.559 23.199,-33.359 39.838,-44.398c16.639,-11.04 35.038,-16.559 55.197,-16.559c13.12,-0 25.199,2.559 36.239,7.679c11.039,5.12 20.879,12.32 29.519,21.599l-0,-130.074l54.237,-9.12l0,353.745l-52.798,-0l0,-27.839c-8.639,10.24 -18.719,17.999 -30.238,23.279c-11.52,5.28 -24.159,7.92 -37.919,7.92Zm12.96,-44.638c10.879,-0 20.959,-2.08 30.239,-6.24c9.279,-4.16 17.119,-10.08 23.519,-17.759l-0,-109.435c-6.4,-7.68 -14.32,-13.68 -23.759,-18c-9.44,-4.319 -19.44,-6.479 -29.999,-6.479c-13.44,-0 -25.279,3.359 -35.519,10.079c-10.239,6.72 -18.239,15.999 -23.999,27.839c-5.759,11.839 -8.639,25.599 -8.639,41.278c-0,15.04 2.88,28.559 8.639,40.558c5.76,12 13.76,21.359 23.999,28.079c10.24,6.72 22.079,10.08 35.519,10.08Z"
        fill="currentColor"
        fill-rule="nonzero"
      />
      <path
        d="M2417.04,485.128c-23.359,-0 -44.478,-5.52 -63.357,-16.56c-18.879,-11.039 -33.839,-25.998 -44.878,-44.878c-11.04,-18.879 -16.559,-39.998 -16.559,-63.357c-0,-23.679 5.199,-44.798 15.599,-63.357c10.399,-18.559 24.639,-33.359 42.718,-44.398c18.079,-11.04 38.318,-16.559 60.717,-16.559c23.359,-0 44.078,5.439 62.158,16.319c18.079,10.879 32.318,25.599 42.718,44.158c10.399,18.559 15.599,39.838 15.599,63.837l0,12.96l-186.232,-0c1.6,13.119 5.84,24.719 12.72,34.798c6.879,10.08 15.679,17.999 26.398,23.759c10.72,5.76 22.479,8.64 35.279,8.64c12.479,-0 24.079,-2.4 34.798,-7.2c10.72,-4.8 19.6,-11.52 26.639,-20.159l35.999,32.158c-13.76,13.76 -28.959,23.839 -45.598,30.239c-16.64,6.4 -34.879,9.6 -54.718,9.6Zm-71.037,-145.914l133.914,0c-1.92,-11.839 -5.999,-22.159 -12.239,-30.959c-6.24,-8.799 -14.08,-15.679 -23.519,-20.639c-9.44,-4.959 -20.079,-7.439 -31.919,-7.439c-11.199,-0 -21.359,2.4 -30.478,7.199c-9.12,4.8 -16.72,11.6 -22.799,20.399c-6.08,8.8 -10.4,19.28 -12.96,31.439Z"
        fill="currentColor"
        fill-rule="nonzero"
      />
      <path
        d="M2648.39,480.328l-100.796,-240.47l59.038,0l69.597,177.113l69.117,-177.113l56.637,0l-101.275,240.47l-52.318,-0Z"
        fill="currentColor"
        fill-rule="nonzero"
      />
    </g>
  </symbol>
</svg>