<svg xmlns="http://www.w3.org/2000/svg"><symbol viewBox="0 0 2853 601" id="logotype"><path d="M241.84 425.48H358.8m-58.46-350.4v25.03m159.27 40.95-17.7 17.7m83.68 141.58h-25.03m-400.45 0H75.08m83.67-141.59-17.7-17.7m70.79 247.78a125.19 125.19 0 0 1-36.64-88.47c0-68.65 56.49-125.14 125.14-125.14s125.14 56.49 125.14 125.14c0 33.17-13.2 65.02-36.64 88.48l-13.72 13.69a84.48 84.48 0 0 0-24.73 59.71v13.3c0 27.45-22.6 50.05-50.05 50.05-27.46 0-50.06-22.6-50.06-50.06v-13.29a84.5 84.5 0 0 0-24.73-59.71l-13.71-13.7Z" fill="none" stroke="currentColor" stroke-width="50.06" stroke-linecap="round"/><path d="M869.1 485.13c-30.07 0-52.87-6.64-68.39-19.92-15.52-13.28-23.28-32.72-23.28-58.32V283.06h-76.8v-43.2h76.8v-66.24l54.24-11.52v77.76h101.75v43.2H831.67V396.8c0 15.04 3.6 25.76 10.8 32.16 7.2 6.4 18.48 9.6 33.84 9.6 8.32 0 17.04-.72 26.15-2.16 9.12-1.44 19.6-4.24 31.44-8.4v46.08a277.8 277.8 0 0 1-32.16 7.92 178.61 178.61 0 0 1-32.63 3.12Zm116.64-4.8V136.18l54.24-9.6v149.28c18.56-26.56 43.2-39.84 73.92-39.84 16.63 0 31.2 3.6 43.67 10.8 12.48 7.2 22.32 17.28 29.52 30.24 7.2 12.96 10.8 27.92 10.8 44.87v158.4h-54.72V337.29c0-17.6-4.8-31.6-14.4-42-9.6-10.4-22.4-15.6-38.4-15.6a60.6 60.6 0 0 0-28.31 6.73c-8.64 4.48-16 11.04-22.08 19.68v174.23h-54.24Zm367.66-287.51c-10.88 0-20.08-3.84-27.6-11.52-7.52-7.68-11.28-16.8-11.28-27.36 0-10.56 3.76-19.6 11.28-27.12s16.72-11.28 27.6-11.28c10.56 0 19.6 3.76 27.12 11.28s11.28 16.56 11.28 27.12c0 10.56-3.76 19.68-11.28 27.36s-16.56 11.52-27.12 11.52Zm61.44 292.3c-29.12 0-51.2-6.87-66.24-20.63-15.04-13.76-22.56-34.08-22.56-60.96V283.06h-86.4v-43.2h140.64v157.91c0 14.4 3.44 24.8 10.32 31.2 6.88 6.4 17.36 9.6 31.44 9.6 8 0 15.84-.8 23.52-2.4 7.68-1.6 16.16-4.16 25.44-7.68v45.6c-7.36 2.88-16.16 5.44-26.4 7.68a139.12 139.12 0 0 1-29.76 3.36Zm98.88-4.79V239.86h54.24v36c18.56-26.56 43.2-39.84 73.92-39.84 16.63 0 31.2 3.6 43.67 10.8 12.48 7.2 22.32 17.28 29.52 30.24 7.2 12.96 10.8 27.92 10.8 44.87v158.4h-54.72V337.29c0-17.6-4.8-31.6-14.4-42-9.6-10.4-22.4-15.6-38.4-15.6a60.6 60.6 0 0 0-28.31 6.73c-8.64 4.48-16 11.04-22.08 19.68v174.23h-54.24Zm267.83 0V135.7l54.24-9.12v216.95l107.03-103.67h62.88l-116.64 111.83 122.88 128.64h-69.6L1835.8 368.49v111.84h-54.24Zm351.34 3.36c-20.16 0-38.48-5.44-54.96-16.32-16.48-10.88-29.6-25.68-39.35-44.4-9.76-18.72-14.64-39.6-14.64-62.64 0-23.36 4.95-44.32 14.87-62.87 9.92-18.56 23.2-33.36 39.84-44.4 16.64-11.04 35.04-16.56 55.2-16.56 13.12 0 25.2 2.56 36.24 7.68a94.32 94.32 0 0 1 29.52 21.6V135.7l54.24-9.12v353.75h-52.8v-27.84c-8.64 10.24-18.72 18-30.24 23.28-11.52 5.28-24.16 7.92-37.92 7.92Zm12.96-44.64c10.88 0 20.96-2.08 30.24-6.24a64.57 64.57 0 0 0 23.52-17.76V305.62a66.46 66.46 0 0 0-23.76-18 71.27 71.27 0 0 0-30-6.48c-13.44 0-25.28 3.36-35.52 10.08-10.24 6.72-18.24 16-24 27.83-5.76 11.84-8.64 25.6-8.64 41.28 0 15.04 2.88 28.56 8.64 40.56 5.76 12 13.76 21.36 24 28.08 10.24 6.72 22.08 10.08 35.52 10.08Zm271.19 46.08c-23.36 0-44.48-5.52-63.36-16.56a123.17 123.17 0 0 1-44.87-44.88c-11.05-18.88-16.56-40-16.56-63.36 0-23.68 5.2-44.8 15.6-63.35a119.74 119.74 0 0 1 42.71-44.4c18.08-11.04 38.32-16.56 60.72-16.56 23.36 0 44.08 5.44 62.16 16.32a117.9 117.9 0 0 1 42.72 44.16c10.4 18.55 15.6 39.83 15.6 63.83v12.96h-186.24c1.6 13.12 5.84 24.72 12.72 34.8a73.83 73.83 0 0 0 26.4 23.76c10.72 5.76 22.48 8.64 35.28 8.64 12.48 0 24.08-2.4 34.8-7.2 10.72-4.8 19.6-11.52 26.64-20.16l36 32.16c-13.76 13.76-28.96 23.84-45.6 30.24-16.64 6.4-34.88 9.6-54.72 9.6ZM2346 339.2h133.92c-1.92-11.83-6-22.15-12.24-30.95a66.27 66.27 0 0 0-23.52-20.64c-9.44-4.96-20.08-7.44-31.92-7.44-11.2 0-21.36 2.4-30.48 7.2a63.23 63.23 0 0 0-22.8 20.4c-6.08 8.8-10.4 19.28-12.96 31.43Zm302.39 141.13-100.8-240.47h59.04l69.6 177.11 69.12-177.11h56.63l-101.27 240.47h-52.32Z" fill="currentColor"/></symbol></svg>